<?xml version="1.0" encoding="UTF-8"?>
<svg width="26px" height="25px" viewBox="0 0 26 25" version="1.1" xmlns="http://www.w3.org/2000/svg" xmlns:xlink="http://www.w3.org/1999/xlink">
    <!-- Generator: Sketch 46.2 (44496) - http://www.bohemiancoding.com/sketch -->
    <title>notifications_active - material</title>
    <desc>Created with Sketch.</desc>
    <defs></defs>
    <g id="mobile" stroke="none" stroke-width="1" fill="none" fill-rule="evenodd">
        <g id="vote" transform="translate(-36.000000, -105.000000)" fill="#F50064">
            <g id="Group" transform="translate(10.000000, 74.000000)">
                <path d="M39.2569444,55.98 C38.5520798,55.98 37.9529539,55.7400024 37.4595486,55.26 C36.9661434,54.7799976 36.7194444,54.2000034 36.7194444,53.52 L41.7340278,53.52 C41.7340278,54.2400036 41.4973982,54.8299977 41.0241319,55.29 C40.5508657,55.7500023 39.9618091,55.98 39.2569444,55.98 Z M46.8090278,42.27 L46.8090278,48.48 L49.3465278,51 L49.3465278,52.23 L29.1673611,52.23 L29.1673611,51 L31.7048611,48.48 L31.7048611,42.27 C31.7048611,40.3099902 32.198259,38.6200071 33.1850694,37.2 C34.1920189,35.7399927 35.5916577,34.7900022 37.3840278,34.35 L37.3840278,33.48 C37.3840278,32.9599974 37.565276,32.5150018 37.9277778,32.145 C38.2902796,31.7749982 38.7333307,31.59 39.2569444,31.59 C39.7805582,31.59 40.228644,31.7749982 40.6012153,32.145 C40.9737866,32.5150018 41.1600694,32.9599974 41.1600694,33.48 L41.1600694,34.35 C42.9323005,34.7900022 44.32187,35.7499926 45.3288194,37.23 C46.3156299,38.6500071 46.8090278,40.3299903 46.8090278,42.27 Z M49.2861111,41.61 C49.2055552,39.9699918 48.762504,38.4400071 47.9569444,37.02 C47.1916628,35.6599932 46.1645898,34.5200046 44.8756944,33.6 L46.6277778,31.83 C48.158341,32.9900058 49.3767316,34.4099916 50.2829861,36.09 C51.2295186,37.8100086 51.7430552,39.6499902 51.8236111,41.61 L49.2861111,41.61 Z M33.6986111,33.6 C32.3895768,34.5200046 31.342365,35.6599932 30.5569444,37.02 C29.7513849,38.4400071 29.3083337,39.9699918 29.2277778,41.61 L26.6902778,41.61 C26.7708337,39.6499902 27.2843703,37.8100086 28.2309028,36.09 C29.1371573,34.4099916 30.3555479,32.9900058 31.8861111,31.83 L33.6986111,33.6 Z" id="notifications_active---material"></path>
            </g>
        </g>
    </g>
</svg>